<svg xmlns="http://www.w3.org/2000/svg" viewBox="0 0 640 480">
  <defs>
    <linearGradient id="bg" x1="0" y1="0" x2="1" y2="1">
      <stop offset="0" stop-color="#0b1220"/>
      <stop offset="1" stop-color="#0f172a"/>
    </linearGradient>
    <linearGradient id="shine" x1="0" y1="0" x2="1" y2="1">
      <stop offset="0" stop-color="#22c55e"/>
      <stop offset="1" stop-color="#38bdf8"/>
    </linearGradient>
    <filter id="blur"><feGaussianBlur stdDeviation="12"/></filter>
  </defs>
  <rect width="100%" height="100%" fill="url(#bg)"/>
  <g transform="translate(160,80)">
    <g opacity="0.35" filter="url(#blur)">
      <ellipse cx="160" cy="160" rx="220" ry="140" fill="url(#shine)"/>
    </g>
    <g fill="none" stroke="url(#shine)" stroke-width="3">
      <path d="M160 20c60 0 120 60 120 160s-60 160-120 160S40 280 40 180 100 20 160 20z" opacity="0.9"/>
      <path d="M160 60c44 0 88 44 88 120s-44 120-88 120S72 256 72 180 116 60 160 60z" opacity="0.6"/>
      <path d="M160 100c28 0 56 28 56 80s-28 80-56 80-56-28-56-80 28-80 56-80z" opacity="0.4"/>
    </g>
  </g>
</svg>
